<svg width="152" height="78" viewBox="0 0 152 78" fill="none" xmlns="http://www.w3.org/2000/svg">
<path d="M56.6066 38.3429C55.2426 38.6317 54.0224 38.631 52.9461 38.3408C51.886 38.0254 50.9992 37.4575 50.2856 36.637C49.5676 35.7957 49.0707 34.7241 48.795 33.4222L47.9021 29.2063C47.622 27.8836 47.6418 26.7026 47.9615 25.6632C48.2812 24.6238 48.8638 23.7555 49.7094 23.0581C50.5713 22.3358 51.6842 21.8302 53.0482 21.5413C54.2675 21.2831 55.3903 21.2828 56.4166 21.5405C57.4385 21.7775 58.2931 22.2443 58.9804 22.9409C59.6678 23.6374 60.1274 24.5334 60.3594 25.6287C60.4951 26.2693 60.4082 26.8276 60.0987 27.3034C59.8055 27.7541 59.3385 28.0474 58.6979 28.1831C58.0159 28.3275 57.4495 28.2531 56.9988 27.9599C56.5687 27.6623 56.2673 27.2079 56.0946 26.5967C55.9602 26.0637 55.6888 25.7001 55.2806 25.5059C54.8724 25.3116 54.3996 25.2714 53.8623 25.3852C53.2216 25.5209 52.7754 25.8097 52.5235 26.2517C52.2673 26.6731 52.2135 27.2351 52.3623 27.9378L53.3865 32.7736C53.5353 33.4763 53.8145 33.9786 54.2239 34.2806C54.629 34.5618 55.1518 34.6347 55.7925 34.499C56.3298 34.3852 56.7457 34.1567 57.0401 33.8137C57.3301 33.4499 57.4308 33.0076 57.342 32.4865C57.2521 31.8578 57.3434 31.3202 57.6159 30.8738C57.9091 30.4231 58.3967 30.1254 59.0787 29.981C59.7193 29.8453 60.265 29.9241 60.7158 30.2173C61.1873 30.5061 61.4908 30.9709 61.6265 31.6115C61.9766 33.2648 61.6884 34.7078 60.7619 35.9405C59.831 37.1526 58.4459 37.9533 56.6066 38.3429ZM66.6769 36.1453C66.0156 36.2854 65.422 36.1844 64.8961 35.8423C64.3702 35.5002 64.0372 34.9985 63.8971 34.3372L61.3367 22.2475C61.1966 21.5862 61.2976 20.9926 61.6397 20.4667C61.9818 19.9408 62.4835 19.6078 63.1448 19.4677C63.8061 19.3277 64.3894 19.4309 64.8946 19.7773C65.4205 20.1194 65.7535 20.6211 65.8936 21.2824L66.1431 22.4604C66.057 21.4421 66.2147 20.5558 66.6164 19.8014C67.0343 19.0219 67.5946 18.5577 68.2973 18.4089C68.9792 18.2645 69.5375 18.3514 69.972 18.6696C70.4227 18.9628 70.7116 19.4091 70.8385 20.0084C70.9742 20.6491 70.8917 21.228 70.5909 21.7451C70.2858 22.2416 69.8129 22.5577 69.1723 22.6934C68.2216 22.8947 67.5612 23.2937 67.1909 23.8903C66.8162 24.4663 66.7449 25.302 66.9769 26.3973L68.454 33.3721C68.5941 34.0334 68.4931 34.627 68.151 35.1529C67.8296 35.6745 67.3382 36.0053 66.6769 36.1453ZM81.0463 33.1668C79.0417 33.5914 77.3322 33.3704 75.9179 32.5039C74.5243 31.6331 73.6195 30.216 73.2037 28.2527L71.4705 20.0689C71.3305 19.4076 71.4337 18.8243 71.7801 18.3191C72.1222 17.7932 72.6135 17.4624 73.2542 17.3267C73.9155 17.1866 74.4988 17.2898 75.004 17.6363C75.5256 17.9577 75.8563 18.4491 75.9964 19.1104L77.7953 27.6042C77.9397 28.2861 78.2063 28.7803 78.5951 29.0866C79.0045 29.3886 79.5503 29.4674 80.2322 29.3229C80.9142 29.1785 81.3708 28.8875 81.602 28.4498C81.8539 28.0078 81.9076 27.4458 81.7632 26.7638L79.9643 18.27C79.8243 17.6087 79.9274 17.0254 80.2739 16.5202C80.616 15.9943 81.1073 15.6635 81.748 15.5278C82.4093 15.3878 82.9926 15.4909 83.4978 15.8374C84.0193 16.1588 84.3501 16.6502 84.4902 17.3115L86.2234 25.4953C86.4992 26.7973 86.469 27.9805 86.1331 29.0449C85.8134 30.0843 85.2226 30.9652 84.3607 31.6876C83.4944 32.3893 82.3896 32.8824 81.0463 33.1668ZM91.6839 30.8492C91.0432 30.9849 90.4599 30.8817 89.934 30.5396C89.4081 30.1975 89.0751 29.6958 88.9351 29.0345L86.3681 16.9138C86.228 16.2525 86.3312 15.6692 86.6777 15.164C87.0197 14.638 87.5111 14.3073 88.1518 14.1716C88.8131 14.0315 89.3964 14.1347 89.9016 14.4812C90.4231 14.8026 90.7539 15.2939 90.894 15.9553L91.0121 16.5132C91.016 16.1237 91.127 15.6792 91.3451 15.1795C91.5588 14.6592 91.9096 14.1747 92.3976 13.7258C92.9062 13.2726 93.5635 12.9607 94.3695 12.79C95.7334 12.5011 96.9354 12.7216 97.9753 13.4514C99.0108 14.1606 99.7102 15.3729 100.073 17.0882L102.017 26.264C102.157 26.9253 102.056 27.5189 101.714 28.0448C101.392 28.5663 100.901 28.8971 100.24 29.0372C99.599 29.1728 99.0157 29.0696 98.4898 28.7276C97.9639 28.3855 97.6309 27.8838 97.4909 27.2225L95.7183 18.8527C95.5782 18.1914 95.2909 17.7016 94.8564 17.3833C94.4426 17.0607 93.9361 16.9629 93.3367 17.0898C92.6134 17.243 92.1264 17.5944 91.8758 18.1442C91.6458 18.6895 91.6096 19.3342 91.7671 20.0782L93.461 28.076C93.601 28.7373 93.5 29.3309 93.158 29.8568C92.8365 30.3783 92.3452 30.7091 91.6839 30.8492ZM110.527 26.9232C109.163 27.2121 107.943 27.2114 106.867 26.9211C105.807 26.6058 104.92 26.0378 104.206 25.2173C103.488 24.376 102.991 23.3044 102.716 22.0025L101.823 17.7866C101.543 16.4639 101.562 15.2829 101.882 14.2435C102.202 13.2041 102.784 12.3358 103.63 11.6385C104.492 10.9161 105.605 10.4105 106.969 10.1216C108.188 9.86336 109.311 9.8631 110.337 10.1208C111.359 10.3578 112.214 10.8246 112.901 11.5212C113.588 12.2177 114.048 13.1137 114.28 14.209C114.416 14.8496 114.329 15.4079 114.019 15.8837C113.726 16.3345 113.259 16.6277 112.618 16.7634C111.936 16.9078 111.37 16.8334 110.919 16.5402C110.489 16.2426 110.188 15.7882 110.015 15.177C109.881 14.644 109.609 14.2804 109.201 14.0862C108.793 13.8919 108.32 13.8517 107.783 13.9655C107.142 14.1012 106.696 14.39 106.444 14.8321C106.188 15.2534 106.134 15.8154 106.283 16.5181L107.307 21.3539C107.456 22.0566 107.735 22.5589 108.144 22.8609C108.549 23.1422 109.072 23.215 109.713 23.0793C110.25 22.9655 110.666 22.7371 110.961 22.394C111.251 22.0303 111.351 21.5879 111.263 21.0668C111.173 20.4381 111.264 19.9005 111.536 19.4541C111.83 19.0034 112.317 18.7058 112.999 18.5613C113.64 18.4256 114.186 18.5044 114.636 18.7976C115.108 19.0864 115.411 19.5512 115.547 20.1918C115.897 21.8451 115.609 23.2881 114.682 24.5208C113.751 25.7329 112.366 26.5337 110.527 26.9232ZM120.566 24.7322C119.926 24.8679 119.343 24.7647 118.817 24.4226C118.291 24.0805 117.958 23.5788 117.818 22.9175L114.161 5.65094C114.021 4.98962 114.124 4.40635 114.47 3.90111C114.812 3.37521 115.304 3.04441 115.945 2.90873C116.606 2.76867 117.189 2.87187 117.694 3.21832C118.216 3.53973 118.547 4.0311 118.687 4.69242L119.901 10.4273C119.905 10.0378 120.014 9.58287 120.228 9.06257C120.441 8.54226 120.792 8.05769 121.28 7.60885C121.789 7.15564 122.446 6.84369 123.252 6.673C124.616 6.38412 125.818 6.60462 126.858 7.33448C127.898 8.06434 128.599 9.28692 128.963 11.0022L130.899 20.147C131.039 20.8083 130.938 21.4019 130.596 21.9278C130.275 22.4493 129.784 22.7801 129.122 22.9202C128.482 23.0559 127.898 22.9527 127.372 22.6106C126.847 22.2685 126.514 21.7668 126.373 21.1055L124.607 12.7667C124.467 12.1054 124.18 11.6156 123.746 11.2974C123.332 10.9747 122.825 10.8769 122.226 11.0038C121.503 11.157 121.016 11.5085 120.765 12.0582C120.535 12.6035 120.499 13.2482 120.656 13.9922L122.344 21.959C122.484 22.6203 122.383 23.2139 122.041 23.7398C121.719 24.2614 121.228 24.5921 120.566 24.7322Z" fill="#EBFFB0"/>
<path d="M73.4373 60.5931C72.0438 60.6376 70.8427 60.4223 69.8342 59.9473C68.8461 59.4505 68.073 58.7354 67.5148 57.8021C66.9559 56.8478 66.6553 55.7055 66.6128 54.3753L66.4753 50.0681C66.4321 48.7168 66.6593 47.5577 67.1568 46.5907C67.6543 45.6237 68.3806 44.8714 69.3356 44.3336C70.3111 43.7741 71.4956 43.4721 72.8891 43.4276C74.1349 43.3878 75.2402 43.585 76.2051 44.0192C77.1694 44.4322 77.9286 45.042 78.4828 45.8486C79.0369 46.6552 79.3318 47.618 79.3676 48.737C79.3885 49.3916 79.2048 49.9258 78.8164 50.3398C78.4485 50.732 77.9373 50.9385 77.2827 50.9594C76.586 50.9817 76.0415 50.8088 75.6493 50.4409C75.2783 50.0723 75.0615 49.572 74.999 48.9399C74.9604 48.3917 74.7572 47.986 74.3895 47.723C74.0218 47.46 73.5635 47.3372 73.0145 47.3548C72.36 47.3757 71.8699 47.5815 71.5442 47.9724C71.2179 48.3421 71.0661 48.8859 71.0891 49.6037L71.2468 54.5444C71.2698 55.2622 71.4562 55.8058 71.8062 56.1751C72.1554 56.5232 72.6573 56.6868 73.3119 56.6659C73.8608 56.6484 74.3104 56.4967 74.6606 56.2107C75.0101 55.9037 75.1869 55.4859 75.1912 54.9574C75.2132 54.3226 75.3976 53.8095 75.7444 53.418C76.1123 53.0258 76.6446 52.8186 77.3414 52.7963C77.9959 52.7754 78.5193 52.9489 78.9115 53.3168C79.3248 53.6841 79.5419 54.195 79.5628 54.8495C79.6167 56.5386 79.0792 57.9084 77.9503 58.959C76.8208 59.9884 75.3164 60.5331 73.4373 60.5931ZM83.7371 60.2008C83.0615 60.2224 82.4949 60.0185 82.0373 59.5893C81.5798 59.1601 81.3402 58.6076 81.3187 57.932L80.9243 45.5804C80.9027 44.9048 81.1065 44.3382 81.5357 43.8806C81.965 43.4231 82.5174 43.1835 83.193 43.162C83.8687 43.1404 84.4247 43.3446 84.8612 43.7745C85.3187 44.2037 85.5583 44.7561 85.5798 45.4318L85.6183 46.6353C85.7126 45.6177 86.0238 44.773 86.5518 44.1009C87.1003 43.4071 87.7335 43.0487 88.4514 43.0258C89.1481 43.0035 89.6824 43.1872 90.0541 43.5769C90.4463 43.9448 90.6522 44.435 90.6717 45.0473C90.6926 45.7018 90.5096 46.2571 90.1226 46.7133C89.7349 47.1484 89.2138 47.3764 88.5593 47.3973C87.588 47.4283 86.8677 47.705 86.3983 48.2272C85.9282 48.7283 85.711 49.5384 85.7467 50.6574L85.9743 57.7833C85.9958 58.459 85.792 59.0256 85.3628 59.4831C84.9547 59.94 84.4128 60.1792 83.7371 60.2008ZM98.4064 59.7958C96.3584 59.8612 94.7144 59.343 93.4745 58.2413C92.2557 57.1389 91.6143 55.5848 91.5503 53.579L91.2833 45.2179C91.2617 44.5423 91.4659 43.9863 91.8958 43.5498C92.325 43.0923 92.8669 42.8531 93.5214 42.8322C94.197 42.8106 94.7531 43.0147 95.1895 43.4447C95.6464 43.8528 95.8856 44.3946 95.9072 45.0703L96.1843 53.7481C96.2065 54.4448 96.3821 54.9782 96.7109 55.3481C97.0609 55.7174 97.5842 55.8909 98.281 55.8686C98.9778 55.8464 99.4784 55.6402 99.783 55.25C100.109 54.8592 100.26 54.3154 100.238 53.6186L99.961 44.9408C99.9395 44.2652 100.144 43.7092 100.574 43.2727C101.003 42.8152 101.545 42.576 102.199 42.5551C102.875 42.5335 103.431 42.7376 103.867 43.1676C104.324 43.5757 104.563 44.1175 104.585 44.7932L104.852 53.1543C104.894 54.4844 104.657 55.6439 104.139 56.6327C103.641 57.5996 102.905 58.3629 101.929 58.9224C100.953 59.4608 99.7788 59.752 98.4064 59.7958ZM109.286 59.385C108.631 59.4059 108.075 59.2017 107.618 58.7725C107.16 58.3432 106.921 57.7908 106.899 57.1152L106.504 44.7319C106.482 44.0563 106.686 43.5002 107.116 43.0638C107.545 42.6063 108.087 42.367 108.742 42.3461C109.417 42.3246 109.973 42.5287 110.41 42.9586C110.867 43.3668 111.106 43.9086 111.127 44.5843L111.146 45.1543C111.218 44.7716 111.405 44.3535 111.708 43.9C112.01 43.4254 112.44 43.01 113 42.654C113.58 42.2973 114.282 42.1058 115.105 42.0795C116.499 42.035 117.643 42.4635 118.539 43.3648C119.433 44.2451 119.909 45.5614 119.965 47.3139L120.264 56.6884C120.286 57.364 120.082 57.9306 119.652 58.3882C119.244 58.8451 118.702 59.0843 118.027 59.1059C117.372 59.1268 116.816 58.9226 116.359 58.4934C115.901 58.0641 115.662 57.5117 115.64 56.836L115.367 48.285C115.345 47.6093 115.149 47.0766 114.777 46.6869C114.426 46.2966 113.945 46.1112 113.333 46.1307C112.594 46.1543 112.052 46.4146 111.709 46.9117C111.387 47.4081 111.238 48.0364 111.262 48.7965L111.523 56.9675C111.544 57.6432 111.341 58.2098 110.911 58.6673C110.503 59.1242 109.961 59.3634 109.286 59.385ZM128.526 58.834C127.132 58.8785 125.931 58.6632 124.923 58.1882C123.935 57.6914 123.161 56.9763 122.603 56.043C122.044 55.0887 121.744 53.9464 121.701 52.6162L121.564 48.309C121.521 46.9577 121.748 45.7986 122.245 44.8316C122.743 43.8646 123.469 43.1123 124.424 42.5745C125.4 42.015 126.584 41.713 127.978 41.6685C129.223 41.6287 130.329 41.8259 131.294 42.2601C132.258 42.6731 133.017 43.2829 133.571 44.0895C134.125 44.8961 134.42 45.8589 134.456 46.9779C134.477 47.6325 134.293 48.1667 133.905 48.5807C133.537 48.9729 133.026 49.1794 132.371 49.2003C131.674 49.2226 131.13 49.0497 130.738 48.6818C130.367 48.3132 130.15 47.8129 130.087 47.1808C130.049 46.6326 129.846 46.2269 129.478 45.9639C129.11 45.7009 128.652 45.5781 128.103 45.5957C127.448 45.6166 126.958 45.8224 126.633 46.2133C126.306 46.583 126.155 47.1268 126.178 47.8446L126.335 52.7853C126.358 53.5031 126.545 54.0467 126.895 54.416C127.244 54.7641 127.746 54.9277 128.4 54.9068C128.949 54.8893 129.399 54.7376 129.749 54.4516C130.099 54.1446 130.275 53.7268 130.28 53.1983C130.302 52.5635 130.486 52.0504 130.833 51.6589C131.201 51.2667 131.733 51.0595 132.43 51.0372C133.084 51.0163 133.608 51.1898 134 51.5577C134.413 51.925 134.63 52.4359 134.651 53.0904C134.705 54.7795 134.168 56.1493 133.039 57.1999C131.909 58.2293 130.405 58.774 128.526 58.834ZM138.794 58.4427C138.139 58.4636 137.583 58.2594 137.126 57.8302C136.668 57.401 136.429 56.8485 136.407 56.1729L135.844 38.5323C135.822 37.8567 136.026 37.3006 136.456 36.8642C136.886 36.4067 137.427 36.1674 138.082 36.1465C138.758 36.125 139.314 36.3291 139.75 36.759C140.207 37.1672 140.446 37.709 140.468 38.3847L140.655 44.2438C140.727 43.861 140.914 43.4323 141.216 42.9577C141.518 42.4831 141.949 42.0678 142.508 41.7117C143.088 41.3551 143.79 41.1636 144.614 41.1373C146.007 41.0928 147.152 41.5212 148.047 42.4226C148.942 43.3239 149.418 44.6508 149.474 46.4033L149.772 55.7461C149.794 56.4218 149.59 56.9884 149.161 57.4459C148.753 57.9028 148.211 58.142 147.535 58.1636C146.881 58.1845 146.324 57.9803 145.867 57.5511C145.409 57.1219 145.17 56.5694 145.148 55.8938L144.876 47.3744C144.855 46.6987 144.658 46.1661 144.286 45.7764C143.936 45.386 143.454 45.2006 142.842 45.2201C142.103 45.2437 141.562 45.5041 141.218 46.0011C140.896 46.4975 140.747 47.1258 140.771 47.8859L141.031 56.0253C141.053 56.7009 140.849 57.2675 140.42 57.725C140.011 58.1819 139.47 58.4211 138.794 58.4427Z" fill="#EBFFB0"/>
<path d="M12.8413 64.0429L26.2269 56.126L21.455 44.3898L29.0655 36.3266L23.3487 31.2895L36.0482 18.2725" stroke="#EBFFB0" stroke-width="4"/>
<path d="M16.7451 75.6156L29.4506 72.3757L34.6385 65.0991L57.241 68.5523" stroke="#EBFFB0" stroke-width="4"/>
<path d="M1.79785 62.243L9.97632 46.711L3.39777 38.2445L13.2639 20.6455" stroke="#EBFFB0" stroke-width="4"/>
</svg>
